<?xml version="1.0" standalone="no"?>
<!DOCTYPE svg PUBLIC "-//W3C//DTD SVG 20010904//EN"
 "http://www.w3.org/TR/2001/REC-SVG-20010904/DTD/svg10.dtd">
<svg version="1.0" xmlns="http://www.w3.org/2000/svg"
 width="108px" height="80px" viewBox="0 0 500.000000 500.000000"
 preserveAspectRatio="xMidYMid meet">

<g transform="translate(0.000000,500.000000) scale(0.100000,-0.100000)"
fill="white" stroke="none">
<path d="M0 2500 l0 -2500 2500 0 2500 0 0 2500 0 2500 -2500 0 -2500 0 0
-2500z m3912 369 c29 -6 57 -14 61 -18 4 -4 5 -33 1 -65 -6 -52 -9 -57 -28
-52 -93 27 -150 19 -164 -23 -15 -41 6 -65 86 -102 118 -53 172 -128 156 -217
-20 -116 -134 -180 -271 -152 -32 7 -71 19 -87 27 -28 15 -29 16 -22 76 3 33
8 62 9 64 2 1 21 -6 43 -16 109 -53 216 -26 197 49 -4 17 -28 33 -87 60 -125
59 -173 125 -157 216 15 81 59 131 131 152 47 14 70 14 132 1z m-3505 -18 c77
-35 119 -136 94 -228 -11 -41 -56 -97 -95 -119 -18 -9 -17 -14 21 -80 22 -38
54 -95 72 -126 l32 -58 -73 0 -73 0 -63 120 c-59 112 -65 120 -92 120 l-30 0
0 -120 0 -120 -65 0 -65 0 0 315 0 315 148 0 c123 0 154 -4 189 -19z m703
-196 c0 -244 5 -265 65 -285 26 -9 44 -9 70 0 63 21 65 29 65 277 l0 223 65 0
65 0 0 -221 c0 -246 -5 -278 -57 -338 -110 -129 -344 -82 -391 78 -8 24 -12
121 -12 260 l0 221 65 0 65 0 0 -215z m1167 196 c26 -12 52 -35 70 -62 24 -37
28 -52 28 -114 0 -62 -4 -77 -28 -114 -39 -59 -90 -80 -189 -81 l-78 0 0 -120
0 -120 -65 0 -65 0 0 315 0 315 143 0 c118 0 149 -4 184 -19z m891 -43 l-3
-63 -92 -3 -93 -3 0 -59 0 -60 80 0 80 0 0 -65 0 -65 -80 0 -80 0 0 -60 0 -60
100 0 100 0 0 -65 0 -65 -165 0 -165 0 0 315 0 315 160 0 161 0 -3 -62z m1462
-63 l0 -125 95 0 95 0 0 125 0 125 65 0 65 0 0 -315 0 -315 -65 0 -65 0 0 125
0 125 -95 0 -95 0 0 -125 0 -125 -65 0 -65 0 0 315 0 315 65 0 65 0 0 -125z"/>
<path d="M200 2670 l0 -70 49 0 c53 0 101 14 113 33 14 22 8 74 -10 90 -13 12
-37 17 -85 17 l-67 0 0 -70z"/>
<path d="M2080 2669 l0 -71 65 4 c76 5 99 21 99 72 0 55 -17 66 -95 66 l-69 0
0 -71z"/>
</g>
</svg>
